<mxfile host="app.diagrams.net" modified="2023-02-23T09:37:05.224Z" agent="5.0 (Macintosh; Intel Mac OS X 10_15_7) AppleWebKit/605.1.15 (KHTML, like Gecko) Version/15.2 Safari/605.1.15" etag="sQGcl_jJ0JGgkdOFcHDm" version="20.8.22" type="github">
  <diagram name="Page-1" id="NtDFv7lGtUkmornJkalE">
    <mxGraphModel dx="838" dy="564" grid="0" gridSize="10" guides="1" tooltips="1" connect="1" arrows="1" fold="1" page="1" pageScale="1" pageWidth="827" pageHeight="1169" math="0" shadow="0">
      <root>
        <mxCell id="0" />
        <mxCell id="1" parent="0" />
        <mxCell id="0ELT1PF-z8wpWwdTeymS-14" style="edgeStyle=orthogonalEdgeStyle;rounded=0;orthogonalLoop=1;jettySize=auto;html=1;exitX=0.5;exitY=1;exitDx=0;exitDy=0;entryX=0.5;entryY=0;entryDx=0;entryDy=0;" parent="1" source="DgpxJV7Bac2DRCu_IJg_-10" target="0ELT1PF-z8wpWwdTeymS-4" edge="1">
          <mxGeometry relative="1" as="geometry" />
        </mxCell>
        <mxCell id="DgpxJV7Bac2DRCu_IJg_-10" value="Browser" style="shape=partialRectangle;whiteSpace=wrap;html=1;left=0;right=0;fillColor=none;rounded=0;strokeColor=default;fontFamily=Helvetica;fontSize=12;fontColor=default;" parent="1" vertex="1">
          <mxGeometry x="130" y="475" width="70" height="25" as="geometry" />
        </mxCell>
        <mxCell id="0ELT1PF-z8wpWwdTeymS-5" style="edgeStyle=orthogonalEdgeStyle;rounded=0;orthogonalLoop=1;jettySize=auto;html=1;exitX=0.5;exitY=0;exitDx=0;exitDy=0;entryX=0;entryY=1;entryDx=0;entryDy=0;" parent="1" source="0ELT1PF-z8wpWwdTeymS-1" target="0ELT1PF-z8wpWwdTeymS-4" edge="1">
          <mxGeometry relative="1" as="geometry" />
        </mxCell>
        <mxCell id="0ELT1PF-z8wpWwdTeymS-1" value="User entity (database)" style="shape=partialRectangle;whiteSpace=wrap;html=1;left=0;right=0;fillColor=none;rounded=0;strokeColor=default;fontFamily=Helvetica;fontSize=12;fontColor=default;" parent="1" vertex="1">
          <mxGeometry x="140" y="690" width="160" height="25" as="geometry" />
        </mxCell>
        <mxCell id="0ELT1PF-z8wpWwdTeymS-3" value="current user id" style="text;html=1;align=center;verticalAlign=middle;resizable=0;points=[];autosize=1;strokeColor=none;fillColor=none;" parent="1" vertex="1">
          <mxGeometry x="213" y="492" width="95" height="26" as="geometry" />
        </mxCell>
        <mxCell id="0ELT1PF-z8wpWwdTeymS-15" style="edgeStyle=orthogonalEdgeStyle;rounded=0;orthogonalLoop=1;jettySize=auto;html=1;exitX=1;exitY=0.5;exitDx=0;exitDy=0;" parent="1" source="0ELT1PF-z8wpWwdTeymS-4" edge="1">
          <mxGeometry relative="1" as="geometry">
            <mxPoint x="540" y="595" as="targetPoint" />
          </mxGeometry>
        </mxCell>
        <mxCell id="0ELT1PF-z8wpWwdTeymS-4" value="Search users with common favourite" style="ellipse;whiteSpace=wrap;html=1;aspect=fixed;" parent="1" vertex="1">
          <mxGeometry x="300" y="540" width="110" height="110" as="geometry" />
        </mxCell>
        <mxCell id="0ELT1PF-z8wpWwdTeymS-6" value="list of user id" style="text;html=1;align=center;verticalAlign=middle;resizable=0;points=[];autosize=1;strokeColor=none;fillColor=none;" parent="1" vertex="1">
          <mxGeometry x="190" y="640" width="90" height="30" as="geometry" />
        </mxCell>
        <mxCell id="0ELT1PF-z8wpWwdTeymS-9" style="edgeStyle=orthogonalEdgeStyle;rounded=0;orthogonalLoop=1;jettySize=auto;html=1;exitX=0.5;exitY=0;exitDx=0;exitDy=0;entryX=1;entryY=1;entryDx=0;entryDy=0;" parent="1" source="0ELT1PF-z8wpWwdTeymS-8" target="0ELT1PF-z8wpWwdTeymS-4" edge="1">
          <mxGeometry relative="1" as="geometry" />
        </mxCell>
        <mxCell id="0ELT1PF-z8wpWwdTeymS-8" value="Categories entity (database)" style="shape=partialRectangle;whiteSpace=wrap;html=1;left=0;right=0;fillColor=none;rounded=0;strokeColor=default;fontFamily=Helvetica;fontSize=12;fontColor=default;" parent="1" vertex="1">
          <mxGeometry x="379" y="690" width="190" height="25" as="geometry" />
        </mxCell>
        <mxCell id="0ELT1PF-z8wpWwdTeymS-10" value="list of categories, user id&amp;nbsp;" style="text;html=1;align=center;verticalAlign=middle;resizable=0;points=[];autosize=1;strokeColor=none;fillColor=none;" parent="1" vertex="1">
          <mxGeometry x="390" y="640" width="160" height="30" as="geometry" />
        </mxCell>
        <mxCell id="0ELT1PF-z8wpWwdTeymS-16" value="search user page" style="shape=card;whiteSpace=wrap;html=1;" parent="1" vertex="1">
          <mxGeometry x="540" y="560" width="105" height="70" as="geometry" />
        </mxCell>
      </root>
    </mxGraphModel>
  </diagram>
</mxfile>
